<?xml version="1.0" encoding="UTF-8"?>
<svg xmlns="http://www.w3.org/2000/svg" version="1.1" viewBox="0 0 504 124.6">
  <!-- Generator: Adobe Illustrator 28.7.4, SVG Export Plug-In . SVG Version: 1.2.0 Build 166)  -->
  <g>
    <g id="_レイヤー_1" data-name="レイヤー_1">
      <g>
        <path d="M53.3,120c-1.4,0-2.4-.3-3.3-.8s-1.4-1.3-1.8-2.4c-.3-1-.5-2.4-.5-4.1v-20.3h3.6v20.2c0,.9,0,1.7,0,2.4s.3,1.1.5,1.5c.3.3.8.5,1.4.5s1.1-.2,1.4-.5.4-.9.5-1.5,0-1.4,0-2.4v-20.2h3.6v20.3c0,1.7-.2,3.1-.5,4.1s-1,1.9-1.7,2.4-1.9.8-3.3.8h0Z"/>
        <path d="M71,119.6v-27.6h3.6v27.6h-3.6Z"/>
        <path d="M91.1,119.8c-1,0-1.7,0-2.3-.3s-.9-.6-1-1.1-.3-1.2-.3-2.1v-16.8h-2v-2.6h2v-4.4h3.6v4.4h2.4v2.6h-2.4v16.4c0,.3,0,.7.2.9,0,.2.3.3.7.3s.9,0,1.7,0v2.8h-2.5Z"/>
        <path d="M104.5,94.2v-3.2h3.6v3.2h-3.6ZM104.5,119.6v-23.3h3.6v23.3s-3.6,0-3.6,0Z"/>
        <path d="M120.5,119.6v-23.3h3.6v2.4c.2-.8.6-1.4,1.2-2,.6-.5,1.4-.8,2.4-.8s1.5.2,2,.5c.6.3,1,1,1.3,1.8.3-.7.9-1.3,1.6-1.7s1.5-.6,2.4-.6c1.3,0,2.4.4,3,1.4.6,1,1,2.3,1,4v18.2h-3.6v-18.2c0-.9-.2-1.5-.4-1.8-.3-.3-.7-.5-1.3-.5s-1.2.2-1.7.6-.5,1-.5,1.9v18.1h-3.6v-18.2c0-.8-.2-1.3-.4-1.7-.3-.3-.7-.6-1.3-.6s-1.3.3-1.7.8-.5,1.1-.5,1.9v17.9h-3.6.2Z"/>
        <path d="M154.8,119.9c-1.5,0-2.5-.5-3.1-1.7-.6-1.1-1-2.6-1-4.5v-1.9c0-1.1.2-2,.5-2.8.3-.7.9-1.3,1.5-1.7s1.4-.9,2.4-1.2c.9-.3,1.8-.8,3-1.1v-1.9c0-.9,0-1.7,0-2.2,0-.5-.2-1-.4-1.2s-.6-.3-1.1-.3-.9.2-1.1.4-.4.7-.5,1.2c0,.5,0,1.3,0,2.1v1h-3.6v-.7c0-1,0-1.9.3-2.8.2-.9.4-1.6.8-2.2s1-1,1.7-1.4,1.7-.5,2.7-.5,1.9.2,2.5.4c.7.3,1.2.8,1.6,1.4.3.6.7,1.4.8,2.3.2.9.3,2,.3,3.1v16.2h-3.6v-2.2c0,.3-.3.7-.6,1.1-.3.3-.6.7-1,.9-.4.3-1,.3-1.6.3h0ZM155.9,117c.5,0,1-.2,1.4-.5.3-.3.6-.7.7-1.1v-8.6c-.7.3-1.3.6-1.8.9-.4.3-.9.5-1.1.9-.3.3-.4.7-.6,1,0,.4-.2,1-.2,1.6v2.4c0,1.2,0,2.1.3,2.6.3.5.6.8,1.3.8h0Z"/>
        <path d="M177.6,119.8c-1,0-1.7,0-2.3-.3s-.9-.6-1-1.1-.3-1.2-.3-2.1v-16.8h-2v-2.6h2v-4.4h3.6v4.4h2.4v2.6h-2.4v16.4c0,.3,0,.7.2.9,0,.2.3.3.7.3s.9,0,1.7,0v2.8h-2.5Z"/>
        <path d="M196.1,120c-1.1,0-2.1-.2-2.8-.6-.7-.3-1.2-1-1.7-1.7-.3-.7-.6-1.6-.8-2.5s-.2-2.1-.2-3.3v-8.5c0-1,0-2.1.3-3s.5-1.7.9-2.4c.4-.6,1-1.1,1.7-1.5.7-.3,1.6-.5,2.6-.5s1.9.2,2.6.5,1.2.9,1.6,1.5c.3.7.6,1.5.8,2.4s.2,1.9.2,3.1v4.6h-7.2v4.6c0,1.3,0,2.4.3,3.1s.7,1.1,1.6,1.1,1-.2,1.2-.5c.3-.3.3-.9.4-1.5v-4.1h3.5v1.1c0,1.2,0,2.4-.2,3.3s-.3,1.8-.7,2.5c-.3.7-.9,1.2-1.6,1.6s-1.7.5-2.8.5h.2ZM194.3,105.9h3.6v-3c0-.9,0-1.6,0-2.2s-.2-1-.4-1.3-.6-.4-1.1-.4-1,.2-1.3.5-.4.9-.5,1.5c0,.6,0,1.3,0,2.1v2.9h0Z"/>
        <path d="M233.2,120c-1.3,0-2.4-.3-3.2-1-.9-.6-1.4-1.6-1.8-2.8s-.6-2.7-.6-4.5v-11.6c0-1.2,0-2.4.3-3.3.2-1,.4-1.8.9-2.6.4-.7,1-1.3,1.7-1.7s1.7-.6,2.8-.6,1.9.2,2.6.5,1.2.9,1.7,1.6.7,1.5.9,2.4c.2,1,.3,2,.3,3.1v3.3h-3.5v-3.2c0-1.6,0-2.7-.3-3.5-.3-.8-.8-1.1-1.6-1.1s-1.4.4-1.7,1.2c-.3.8-.4,1.9-.4,3.4v12.2c0,1.1,0,2.1.2,2.9,0,.7.3,1.2.6,1.6s.7.5,1.2.5c.8,0,1.3-.3,1.6-1.1s.4-2.1.4-3.8v-3.4h3.6v3.3c0,1.8-.2,3.3-.5,4.5-.3,1.2-1,2.1-1.7,2.7s-1.9.9-3.3.9h0Z"/>
        <path d="M255.3,119.9c-1.6,0-2.9-.6-3.8-1.9-1-1.3-1.4-3.4-1.4-6.4v-11.7c0-1.2,0-2.3.3-3.2s.5-1.8,1-2.5,1-1.2,1.8-1.6c.8-.3,1.7-.5,2.8-.5s2.1.2,2.8.5c.7.3,1.2.9,1.7,1.6s.6,1.6.8,2.5.2,2.1.2,3.3v2h-3.4v-3.2c0-1.3,0-2.2-.3-2.8s-.8-.9-1.6-.9-1.4.3-1.7,1c-.3.7-.5,1.9-.5,3.7v11.7c0,1.9.2,3.3.4,4.2s.9,1.2,1.7,1.2,1.4-.4,1.7-1.3.5-2.3.5-4.3v-3.7h-2.2v-2.7h5.4v14.6h-1.7l-.5-2.4c-.3.9-.7,1.5-1.4,1.9-.7.4-1.5.7-2.4.7h-.2Z"/>
        <path d="M288.2,119.6v-27.3h5.8c1,0,2,.2,2.7.5.7.3,1.2.9,1.7,1.6s.6,1.5.8,2.4c.2,1,.3,2.1.3,3.3v.5c0,1.8-.2,3.3-.4,4.5-.3,1.2-.8,2.2-1.6,2.8s-1.8,1-3.2,1h-2.3v10.7h-3.8ZM291.8,105.9h1.7c.6,0,1-.2,1.4-.5s.5-.9.6-1.7.2-1.8.2-3.1v-.5c0-1.7-.2-2.9-.4-3.7-.3-.8-.9-1.2-1.7-1.2h-1.8v10.7h0Z"/>
        <path d="M310.4,119.6v-27.6h3.6v6.9c.2-.8.6-1.4,1.3-2s1.5-.9,2.4-.9,2.2.4,2.9,1.3,1,2.1,1,3.8v18.5h-3.6v-18.2c0-.9-.2-1.5-.5-1.8s-.8-.5-1.3-.5-.8,0-1.1.3-.6.5-.8,1c-.2.4-.3,1-.3,1.6v17.7h-3.6v-.2Z"/>
        <path d="M338.9,120c-1.1,0-2-.2-2.7-.5s-1.2-.9-1.7-1.6-.7-1.5-.9-2.4c-.2-1-.3-2.1-.3-3.2v-8.5c0-1.5.2-2.8.5-3.9s.9-2,1.7-2.7,1.9-1,3.3-1,1.9.2,2.6.5,1.2.9,1.7,1.6.7,1.5.9,2.4c.2,1,.3,1.9.3,3.1v8.5c0,1.2,0,2.3-.2,3.2s-.4,1.8-.8,2.4c-.4.7-1,1.2-1.7,1.6s-1.7.5-2.8.5h0ZM338.9,117c.5,0,1-.2,1.2-.5s.4-.8.5-1.4.2-1.3.2-2.1v-10c0-.8,0-1.5-.2-2.1,0-.6-.3-1-.5-1.4-.3-.3-.6-.5-1.1-.5s-1,.2-1.2.5-.4.8-.5,1.4-.2,1.3-.2,2.1v10c0,.8,0,1.5.2,2.1s.3,1,.5,1.4.7.5,1.2.5h0Z"/>
        <path d="M360.4,119.8c-1,0-1.7,0-2.3-.3s-.9-.6-1-1.1-.3-1.2-.3-2.1v-16.8h-2v-2.6h2v-4.4h3.6v4.4h2.4v2.6h-2.4v16.4c0,.3,0,.7.2.9,0,.2.3.3.7.3s.9,0,1.7,0v2.8h-2.5Z"/>
        <path d="M378.9,120c-1.1,0-2-.2-2.7-.5s-1.2-.9-1.7-1.6-.7-1.5-.9-2.4c-.2-1-.3-2.1-.3-3.2v-8.5c0-1.5.2-2.8.5-3.9s.9-2,1.7-2.7,1.9-1,3.3-1,1.9.2,2.6.5,1.2.9,1.7,1.6.7,1.5.9,2.4c.2,1,.3,1.9.3,3.1v8.5c0,1.2,0,2.3-.2,3.2s-.4,1.8-.8,2.4c-.4.7-1,1.2-1.7,1.6s-1.7.5-2.8.5h0ZM378.9,117c.5,0,1-.2,1.2-.5s.4-.8.5-1.4.2-1.3.2-2.1v-10c0-.8,0-1.5-.2-2.1,0-.6-.3-1-.5-1.4-.3-.3-.6-.5-1.1-.5s-1,.2-1.2.5-.4.8-.5,1.4-.2,1.3-.2,2.1v10c0,.8,0,1.5.2,2.1s.3,1,.5,1.4.7.5,1.2.5h0Z"/>
        <path d="M396.3,119.6v-23.3h3.6v2.6c.3-.9.7-1.6,1.4-2.1s1.5-.8,2.5-.8,0,.2,0,.4v2.5c-.5,0-1,0-1.5.2-.5,0-1,.3-1.5.6-.4.3-.8.6-1,1v18.8h-3.6,0Z"/>
        <path d="M414.6,94.2v-3.2h3.6v3.2h-3.6ZM414.6,119.6v-23.3h3.6v23.3s-3.6,0-3.6,0Z"/>
        <path d="M434.2,119.9c-1.5,0-2.5-.5-3.1-1.7s-1-2.6-1-4.5v-1.9c0-1.1.2-2,.5-2.8.3-.7.9-1.3,1.5-1.7s1.4-.9,2.4-1.2c.9-.3,1.8-.8,3-1.1v-1.9c0-.9,0-1.7,0-2.2,0-.5-.2-1-.4-1.2s-.6-.3-1.1-.3-.9.2-1.1.4-.4.7-.5,1.2c0,.5,0,1.3,0,2.1v1h-3.6v-.7c0-1,0-1.9.3-2.8.2-.9.4-1.6.8-2.2s1-1,1.7-1.4,1.7-.5,2.7-.5,1.9.2,2.5.4c.7.3,1.2.8,1.6,1.4s.7,1.4.8,2.3c.2.9.3,2,.3,3.1v16.2h-3.6v-2.2c0,.3-.3.7-.6,1.1-.3.3-.6.7-1,.9-.4.3-1,.3-1.6.3h0ZM435.3,117c.5,0,1-.2,1.4-.5.3-.3.6-.7.7-1.1v-8.6c-.7.3-1.3.6-1.8.9-.4.3-.9.5-1.1.9-.3.3-.4.7-.6,1,0,.4-.2,1-.2,1.6v2.4c0,1.2,0,2.1.3,2.6s.6.8,1.3.8h0Z"/>
        <path d="M453,119.6v-27.6h3.6v27.6h-3.6Z"/>
      </g>
      <g>
        <path d="M12.1,72.5v-13.7h5.1v.9c.2,1.6.2,2.8.2,3.6,0,2.6,1.1,4.4,3.2,5.8,3.5,2.1,7.2,3.2,11.3,3.2s7.7-1.2,10.1-3.6,3.6-5.8,3.6-10.1-.8-6.4-2.3-8.6-4.5-4.4-9-6.9l-5.1-2.9c-11.1-6.3-16.6-13-16.6-20.3s2-10.1,5.9-13.6c3.9-3.6,8.9-5.4,14.9-5.4s5.4.3,8.3.8,6.2,1.2,9.7,2.3v12.7h-5.4v-.9c0-1.7-.2-3-.2-3.8,0-2.7-1-4.7-2.9-5.9s-5-1.9-9.1-1.9-6.2,1.2-8.4,3.4-3.3,5.3-3.3,8.9.8,5.8,2.2,7.9c1.4,2,4.1,4.2,8.1,6.3l5.1,2.9c7,4,11.7,7.5,14.2,10.5s3.6,6.7,3.6,11.1-2.2,10.9-6.6,14.9c-4.4,3.9-10,5.9-16.6,5.9s-7.5-.3-10.8-.9-6.4-1.3-9.3-2.4h0Z"/>
        <path d="M95,6.4h-11.4c-2.7,0-5,.2-7,.5-1.3.2-2,1.3-2,3.5s0,3.1,0,4.2v1h-5.1V2.5h61.3v13h-5.1v-1c-.2-1.2-.2-2.6-.2-4.2s-.7-3.4-1.9-3.5c-2-.3-4.3-.5-7-.5h-11.4v55.1c0,4.3.4,6.9,1.2,7.8s3.1,1.4,6.9,1.6h2.1v3.1h-30.4v-3h2.1c3.8-.3,6.1-.8,6.9-1.7.8-1,1.2-3.5,1.2-7.8V6.4h0Z"/>
        <path d="M158.3,51.9l-4.1,9.5c-1.6,3.7-2.4,6.2-2.4,7.5s2.1,2,6.2,2h.8v3h-18.5v-3h1.1c2.8-.2,4.4-.5,5-1.1.6-.6,1.9-3.4,4-8.4L175.6,1.6h3.4l25,60.2c1.9,4.3,3.4,6.9,4.1,7.7.8.9,2.4,1.3,4.7,1.4h1.2v3.1h-26.5v-3h.9c4.5,0,6.7-.7,6.7-1.9,0-1.9-.7-4.4-2-7.6l-4-9.5h-30.7,0ZM159.9,48h27.3l-13.6-32.5-13.8,32.5h0Z"/>
        <path d="M242.3,42.5v19c0,4.3.3,6.9,1,7.8s2.6,1.4,5.9,1.6h1v3.1h-26.8v-3h1c3.9-.3,6.2-.9,6.9-1.7.8-.9,1.1-3.5,1.1-7.8V15c0-4.3-.4-6.9-1.1-7.8-.8-.9-3.1-1.3-6.9-1.6h-1v-3.1h17.2l8.6-.3h3.8c14.7,0,22.1,5.9,22.1,17.9s-4.9,16.7-14.7,20l13.9,21.1c3.1,4.4,5.1,7.1,6,8s2.1,1.3,3.6,1.4c.5,0,1.5,0,3.3.2h1v3.1h-18.2l-19.4-31.5h-8.3,0ZM242.4,39.3h3.5c12.5,0,18.8-5.9,18.8-17.9s-1.2-9.7-3.5-12.1c-2.3-2.4-6.3-3.5-12-3.5h-6.8v33.5h0Z"/>
        <path d="M349.6,74h-51.6v-3h1c3.9-.3,6.2-.9,6.9-1.7.8-.9,1.1-3.5,1.1-7.8V15c0-4.3-.4-6.9-1.1-7.8-.8-.9-3.1-1.3-6.9-1.6h-1v-3.1h28v3h-1c-3.9.4-6.2.9-6.9,1.7-.7.9-1.1,3.5-1.1,7.8v46.4c0,4.3.3,6.7,1,7.4s3.2,1,7.4,1h7.4c5.9,0,9.2-.3,10-1,.9-.7,1.3-3.4,1.6-8.2v-1h5.1v14.3h0Z"/>
        <path d="M376.4,51.9l-4.1,9.5c-1.6,3.7-2.4,6.2-2.4,7.5s2.1,2,6.2,2h.8v3h-18.5v-3h1.1c2.8-.2,4.4-.5,5-1.1s1.9-3.4,4-8.4L393.7,1.6h3.4l25,60.2c1.9,4.3,3.4,6.9,4.1,7.7.8.9,2.4,1.3,4.7,1.4h1.2v3.1h-26.5v-3h.9c4.5,0,6.7-.7,6.7-1.9,0-1.9-.7-4.4-2-7.6l-4-9.5h-30.7ZM378,48h27.3l-13.6-32.5-13.8,32.5h0Z"/>
        <path d="M474.3,37c5.9,1,10.5,3.2,13.8,6.5s5,7.6,5,12.6-2,10.6-5.9,13.5-10,4.4-18.1,4.4h-27.5v-3h1c3.9-.3,6.2-.9,6.9-1.7.8-.9,1.1-3.5,1.1-7.8V15c0-4.3-.4-6.9-1.1-7.8-.8-.9-3.1-1.3-6.9-1.6h-1v-3.1h28.9c6.4,0,11.4,1.3,14.8,4s5.1,6.6,5.1,11.8-1.3,7.9-3.9,10.9-6.6,5.7-11.9,7.7h0ZM460.4,35.3h2.8c5.6,0,9.7-1.3,12.5-4s4.1-6.6,4.1-11.9-1.2-8.5-3.8-10.6-7-3.1-13.2-3.1h-2.4v29.5h0ZM460.4,38.5v22.9c0,4.9.4,7.6,1.2,8.1,1.5.9,3.7,1.2,6.8,1.2s7.7-1.3,10.3-4c2.7-2.7,3.9-6.1,3.9-10.4,0-11.9-7.4-17.8-22.3-17.8Z"/>
      </g>
    </g>
  </g>
</svg>